# xmcd
#
# Track frame offsets: 
#        182
#        16535
#        33730
#        54222
#        78362
#        91537
#        110497
#        136652
#        155760
#        165650
#        188480
#
# Disc length: 2761 seconds
#
# Revision: 4
# Processed by: cddbd v1.5.2PL0 Copyright (c) Steve Scherf et al.
# Submitted via: ExactAudioCopyFreeDBPlugin 1.0
#
DISCID=720ac70b
DTITLE=Gwyn Ashton - Feel The Heat
DYEAR=1999
DGENRE=Blues
TTITLE0=Loaded 6 Shooter
TTITLE1=Ain't Got Time For That Stuff
TTITLE2=Trouble's Knockin' At Your Door
TTITLE3=Wastin' My Time
TTITLE4=Bad Luck Blues
TTITLE5=Too Late
TTITLE6=Someone Like You
TTITLE7=Just A Little Bit
TTITLE8=Take Me Back Home
TTITLE9=Wanted Man
TTITLE10=We'll Find A Way
EXTD=YEAR: 1999
EXTT0=
EXTT1=
EXTT2=
EXTT3=
EXTT4=
EXTT5=
EXTT6=
EXTT7=
EXTT8=
EXTT9=
EXTT10=
PLAYORDER=
